<svg xmlns="http://www.w3.org/2000/svg" width="800" height="450" viewBox="0 0 800 450">
  <defs>
    <linearGradient id="db-accent" x1="0" y1="0" x2="1" y2="0">
      <stop offset="0%" stop-color="#0891b2"/>
      <stop offset="100%" stop-color="#3b82f6"/>
    </linearGradient>
    <linearGradient id="db-chart" x1="0" y1="1" x2="0" y2="0">
      <stop offset="0%" stop-color="#0891b2" stop-opacity="0.1"/>
      <stop offset="100%" stop-color="#0891b2" stop-opacity="0.4"/>
    </linearGradient>
  </defs>

  <!-- Browser Chrome -->
  <rect width="800" height="450" rx="8" fill="#0c1222"/>
  <rect width="800" height="32" rx="8" fill="#151d2e"/>
  <rect x="0" y="24" width="800" height="8" fill="#151d2e"/>
  <circle cx="16" cy="16" r="5" fill="#ff5f57"/>
  <circle cx="34" cy="16" r="5" fill="#ffbd2e"/>
  <circle cx="52" cy="16" r="5" fill="#28c840"/>
  <rect x="200" y="8" width="400" height="18" rx="9" fill="#0c1222" opacity="0.6"/>
  <text x="400" y="21" text-anchor="middle" fill="#888" font-family="system-ui" font-size="9">analytics.dataflow.io/overview</text>

  <!-- Sidebar -->
  <rect x="0" y="32" width="56" height="418" fill="#0e1726"/>
  <!-- Sidebar icons (abstract) -->
  <rect x="16" y="48" width="24" height="24" rx="6" fill="#0891b2" opacity="0.2"/>
  <rect x="22" y="54" width="12" height="12" rx="2" fill="#22d3ee"/>
  <rect x="16" y="84" width="24" height="24" rx="6" fill="transparent"/>
  <rect x="22" y="90" width="12" height="4" rx="1" fill="#475569"/>
  <rect x="22" y="96" width="12" height="4" rx="1" fill="#475569"/>
  <rect x="16" y="120" width="24" height="24" rx="6" fill="transparent"/>
  <circle cx="28" cy="132" r="6" fill="none" stroke="#475569" stroke-width="1.5"/>
  <rect x="16" y="156" width="24" height="24" rx="6" fill="transparent"/>
  <rect x="22" y="162" width="12" height="12" rx="6" fill="none" stroke="#475569" stroke-width="1.5"/>
  <rect x="16" y="192" width="24" height="24" rx="6" fill="transparent"/>
  <rect x="20" y="198" width="16" height="3" rx="1" fill="#475569"/>
  <rect x="20" y="204" width="16" height="3" rx="1" fill="#475569"/>
  <rect x="20" y="210" width="16" height="3" rx="1" fill="#475569"/>

  <!-- Top Bar -->
  <rect x="56" y="32" width="744" height="42" fill="#0f1829"/>
  <text x="72" y="58" fill="#e2e8f0" font-family="system-ui" font-weight="bold" font-size="14">Dashboard</text>
  <text x="165" y="58" fill="#64748b" font-family="system-ui" font-size="11">Overview</text>
  <!-- Search -->
  <rect x="400" y="42" width="200" height="24" rx="12" fill="#151d2e"/>
  <text x="420" y="58" fill="#475569" font-family="system-ui" font-size="10">Search...</text>
  <!-- Notification bell -->
  <circle cx="640" cy="53" r="10" fill="#151d2e"/>
  <circle cx="646" cy="47" r="4" fill="#ef4444"/>
  <!-- User -->
  <circle cx="680" cy="53" r="12" fill="#0891b2"/>
  <text x="680" y="57" text-anchor="middle" fill="white" font-family="system-ui" font-size="9">JD</text>
  <!-- Date range -->
  <rect x="710" y="42" width="76" height="24" rx="6" fill="#151d2e"/>
  <text x="748" y="58" text-anchor="middle" fill="#64748b" font-family="system-ui" font-size="9">Last 30d</text>

  <!-- Stats Cards -->
  <rect x="68" y="82" width="162" height="76" rx="8" fill="#151d2e"/>
  <text x="80" y="102" fill="#64748b" font-family="system-ui" font-size="10">Total Users</text>
  <text x="80" y="126" fill="#e2e8f0" font-family="system-ui" font-size="22" font-weight="bold">24.5K</text>
  <text x="80" y="144" fill="#22c55e" font-family="system-ui" font-size="9">+14.2% vs last month</text>
  <!-- Mini sparkline -->
  <polyline points="180,130 190,122 200,126 210,115 220,118" fill="none" stroke="#22d3ee" stroke-width="1.5"/>

  <rect x="240" y="82" width="162" height="76" rx="8" fill="#151d2e"/>
  <text x="252" y="102" fill="#64748b" font-family="system-ui" font-size="10">Revenue</text>
  <text x="252" y="126" fill="#e2e8f0" font-family="system-ui" font-size="22" font-weight="bold">$89.2K</text>
  <text x="252" y="144" fill="#22c55e" font-family="system-ui" font-size="9">+8.7% vs last month</text>
  <polyline points="352,128 362,120 372,124 382,110 392,114" fill="none" stroke="#22d3ee" stroke-width="1.5"/>

  <rect x="412" y="82" width="162" height="76" rx="8" fill="#151d2e"/>
  <text x="424" y="102" fill="#64748b" font-family="system-ui" font-size="10">Sessions</text>
  <text x="424" y="126" fill="#e2e8f0" font-family="system-ui" font-size="22" font-weight="bold">148.3K</text>
  <text x="424" y="144" fill="#ef4444" font-family="system-ui" font-size="9">-2.1% vs last month</text>
  <polyline points="524,118 534,122 544,120 554,128 564,130" fill="none" stroke="#ef4444" stroke-width="1.5"/>

  <rect x="584" y="82" width="192" height="76" rx="8" fill="#151d2e"/>
  <text x="596" y="102" fill="#64748b" font-family="system-ui" font-size="10">Bounce Rate</text>
  <text x="596" y="126" fill="#e2e8f0" font-family="system-ui" font-size="22" font-weight="bold">32.4%</text>
  <text x="596" y="144" fill="#22c55e" font-family="system-ui" font-size="9">-4.3% vs last month</text>
  <polyline points="716,124 726,118 736,122 746,116 756,112" fill="none" stroke="#22d3ee" stroke-width="1.5"/>

  <!-- Main Chart Area -->
  <rect x="68" y="168" width="504" height="200" rx="8" fill="#151d2e"/>
  <text x="84" y="192" fill="#e2e8f0" font-family="system-ui" font-size="12" font-weight="bold">Revenue Over Time</text>
  <text x="480" y="192" fill="#22d3ee" font-family="system-ui" font-size="9">Revenue</text>
  <text x="530" y="192" fill="#3b82f6" font-family="system-ui" font-size="9">Users</text>

  <!-- Y-axis labels -->
  <text x="84" y="220" fill="#475569" font-family="system-ui" font-size="8">$100K</text>
  <text x="84" y="250" fill="#475569" font-family="system-ui" font-size="8">$75K</text>
  <text x="84" y="280" fill="#475569" font-family="system-ui" font-size="8">$50K</text>
  <text x="84" y="310" fill="#475569" font-family="system-ui" font-size="8">$25K</text>
  <text x="84" y="340" fill="#475569" font-family="system-ui" font-size="8">$0</text>

  <!-- Grid lines -->
  <line x1="118" y1="216" x2="560" y2="216" stroke="#1e293b" stroke-width="0.5"/>
  <line x1="118" y1="246" x2="560" y2="246" stroke="#1e293b" stroke-width="0.5"/>
  <line x1="118" y1="276" x2="560" y2="276" stroke="#1e293b" stroke-width="0.5"/>
  <line x1="118" y1="306" x2="560" y2="306" stroke="#1e293b" stroke-width="0.5"/>
  <line x1="118" y1="336" x2="560" y2="336" stroke="#1e293b" stroke-width="0.5"/>

  <!-- Area chart fill -->
  <polygon points="118,336 160,310 200,290 240,300 280,270 320,250 360,260 400,235 440,240 480,220 520,228 560,215 560,336" fill="url(#db-chart)"/>
  <!-- Line chart 1 -->
  <polyline points="118,310 160,290 200,270 240,280 280,250 320,232 360,240 400,218 440,222 480,205 520,210 560,198" fill="none" stroke="#22d3ee" stroke-width="2"/>
  <!-- Line chart 2 -->
  <polyline points="118,320 160,310 200,290 240,300 280,270 320,260 360,265 400,248 440,252 480,238 520,244 560,230" fill="none" stroke="#3b82f6" stroke-width="2" stroke-dasharray="4,3"/>

  <!-- X-axis labels -->
  <text x="118" y="355" fill="#475569" font-family="system-ui" font-size="8">Jan</text>
  <text x="200" y="355" fill="#475569" font-family="system-ui" font-size="8">Mar</text>
  <text x="280" y="355" fill="#475569" font-family="system-ui" font-size="8">May</text>
  <text x="360" y="355" fill="#475569" font-family="system-ui" font-size="8">Jul</text>
  <text x="440" y="355" fill="#475569" font-family="system-ui" font-size="8">Sep</text>
  <text x="520" y="355" fill="#475569" font-family="system-ui" font-size="8">Nov</text>

  <!-- Right Panel - Donut Chart -->
  <rect x="584" y="168" width="192" height="200" rx="8" fill="#151d2e"/>
  <text x="596" y="192" fill="#e2e8f0" font-family="system-ui" font-size="12" font-weight="bold">Traffic Source</text>
  <!-- Donut chart -->
  <circle cx="680" cy="260" r="45" fill="none" stroke="#1e293b" stroke-width="14"/>
  <circle cx="680" cy="260" r="45" fill="none" stroke="#22d3ee" stroke-width="14" stroke-dasharray="100 183" stroke-dashoffset="0" transform="rotate(-90 680 260)"/>
  <circle cx="680" cy="260" r="45" fill="none" stroke="#3b82f6" stroke-width="14" stroke-dasharray="70 213" stroke-dashoffset="-100" transform="rotate(-90 680 260)"/>
  <circle cx="680" cy="260" r="45" fill="none" stroke="#8b5cf6" stroke-width="14" stroke-dasharray="50 233" stroke-dashoffset="-170" transform="rotate(-90 680 260)"/>
  <circle cx="680" cy="260" r="45" fill="none" stroke="#f59e0b" stroke-width="14" stroke-dasharray="63 220" stroke-dashoffset="-220" transform="rotate(-90 680 260)"/>
  <text x="680" y="256" text-anchor="middle" fill="#e2e8f0" font-family="system-ui" font-size="14" font-weight="bold">148K</text>
  <text x="680" y="270" text-anchor="middle" fill="#64748b" font-family="system-ui" font-size="8">sessions</text>

  <!-- Legend -->
  <circle cx="604" cy="330" r="4" fill="#22d3ee"/>
  <text x="614" y="334" fill="#94a3b8" font-family="system-ui" font-size="9">Organic  35%</text>
  <circle cx="604" cy="346" r="4" fill="#3b82f6"/>
  <text x="614" y="350" fill="#94a3b8" font-family="system-ui" font-size="9">Direct    25%</text>
  <circle cx="700" cy="330" r="4" fill="#8b5cf6"/>
  <text x="710" y="334" fill="#94a3b8" font-family="system-ui" font-size="9">Social  18%</text>
  <circle cx="700" cy="346" r="4" fill="#f59e0b"/>
  <text x="710" y="350" fill="#94a3b8" font-family="system-ui" font-size="9">Referral 22%</text>

  <!-- Bottom Section - Table -->
  <rect x="68" y="378" width="708" height="64" rx="8" fill="#151d2e"/>
  <text x="84" y="398" fill="#e2e8f0" font-family="system-ui" font-size="11" font-weight="bold">Top Pages</text>
  <!-- Table header -->
  <text x="84" y="418" fill="#475569" font-family="system-ui" font-size="9">Page</text>
  <text x="340" y="418" fill="#475569" font-family="system-ui" font-size="9">Views</text>
  <text x="440" y="418" fill="#475569" font-family="system-ui" font-size="9">Unique</text>
  <text x="540" y="418" fill="#475569" font-family="system-ui" font-size="9">Bounce</text>
  <text x="640" y="418" fill="#475569" font-family="system-ui" font-size="9">Avg Time</text>
  <!-- Table row -->
  <text x="84" y="436" fill="#e2e8f0" font-family="system-ui" font-size="9">/dashboard</text>
  <text x="340" y="436" fill="#94a3b8" font-family="system-ui" font-size="9">12,482</text>
  <text x="440" y="436" fill="#94a3b8" font-family="system-ui" font-size="9">8,921</text>
  <text x="540" y="436" fill="#22c55e" font-family="system-ui" font-size="9">18.2%</text>
  <text x="640" y="436" fill="#94a3b8" font-family="system-ui" font-size="9">4m 23s</text>
</svg>