<svg xmlns="http://www.w3.org/2000/svg" width="800" height="450" viewBox="0 0 800 450">
  <defs>
    <linearGradient id="sa-accent" x1="0" y1="0" x2="1" y2="0">
      <stop offset="0%" stop-color="#7c3aed"/>
      <stop offset="100%" stop-color="#a855f7"/>
    </linearGradient>
    <linearGradient id="sa-story" x1="0" y1="0" x2="1" y2="1">
      <stop offset="0%" stop-color="#7c3aed"/>
      <stop offset="50%" stop-color="#ec4899"/>
      <stop offset="100%" stop-color="#f59e0b"/>
    </linearGradient>
  </defs>

  <!-- Browser Chrome -->
  <rect width="800" height="450" rx="8" fill="#0f0a1a"/>
  <rect width="800" height="32" rx="8" fill="#1a1228"/>
  <rect x="0" y="24" width="800" height="8" fill="#1a1228"/>
  <circle cx="16" cy="16" r="5" fill="#ff5f57"/>
  <circle cx="34" cy="16" r="5" fill="#ffbd2e"/>
  <circle cx="52" cy="16" r="5" fill="#28c840"/>
  <rect x="200" y="8" width="400" height="18" rx="9" fill="#0f0a1a" opacity="0.6"/>
  <text x="400" y="21" text-anchor="middle" fill="#888" font-family="system-ui" font-size="9">connect.social/feed</text>

  <!-- Top Nav -->
  <rect x="0" y="32" width="800" height="44" fill="#150f22"/>
  <text x="24" y="59" fill="#c084fc" font-family="system-ui" font-weight="bold" font-size="16">Connect</text>
  <!-- Search -->
  <rect x="200" y="42" width="260" height="26" rx="13" fill="#1a1228"/>
  <text x="220" y="59" fill="#555" font-family="system-ui" font-size="10">Search people, topics...</text>
  <!-- Nav icons -->
  <rect x="520" y="46" width="28" height="20" rx="4" fill="#7c3aed" opacity="0.2"/>
  <rect x="526" y="52" width="16" height="3" rx="1" fill="#c084fc"/>
  <rect x="526" y="57" width="16" height="3" rx="1" fill="#c084fc"/>

  <rect x="560" y="46" width="28" height="20" rx="4" fill="transparent"/>
  <circle cx="574" cy="56" r="7" fill="none" stroke="#6b7280" stroke-width="1.5"/>

  <rect x="600" y="46" width="28" height="20" rx="4" fill="transparent"/>
  <rect x="608" y="48" width="12" height="16" rx="2" fill="none" stroke="#6b7280" stroke-width="1.5"/>

  <!-- Notifications -->
  <circle cx="660" cy="54" r="12" fill="#1a1228"/>
  <circle cx="666" cy="48" r="5" fill="#ef4444"/>
  <text x="666" y="51" text-anchor="middle" fill="white" font-family="system-ui" font-size="7">5</text>
  <!-- User -->
  <circle cx="700" cy="54" r="14" fill="#7c3aed"/>
  <text x="700" y="58" text-anchor="middle" fill="white" font-family="system-ui" font-size="10">A</text>

  <!-- Stories Bar -->
  <rect x="0" y="76" width="800" height="80" fill="#120d1e"/>
  <!-- Story 1 - Your Story -->
  <circle cx="48" cy="110" r="26" fill="#1a1228"/>
  <circle cx="48" cy="110" r="22" fill="#2d1f42"/>
  <rect x="40" y="102" width="16" height="16" rx="8" fill="#7c3aed" opacity="0.5"/>
  <text x="44" y="114" fill="white" font-family="system-ui" font-size="14">+</text>
  <text x="48" y="146" text-anchor="middle" fill="#888" font-family="system-ui" font-size="8">You</text>

  <!-- Story 2 -->
  <circle cx="118" cy="110" r="26" fill="none" stroke="url(#sa-story)" stroke-width="2.5"/>
  <circle cx="118" cy="110" r="22" fill="#3d2060"/>
  <text x="118" y="114" text-anchor="middle" fill="#d8b4fe" font-family="system-ui" font-size="11">M</text>
  <text x="118" y="146" text-anchor="middle" fill="#888" font-family="system-ui" font-size="8">Maria</text>

  <!-- Story 3 -->
  <circle cx="188" cy="110" r="26" fill="none" stroke="url(#sa-story)" stroke-width="2.5"/>
  <circle cx="188" cy="110" r="22" fill="#2d3060"/>
  <text x="188" y="114" text-anchor="middle" fill="#93c5fd" font-family="system-ui" font-size="11">J</text>
  <text x="188" y="146" text-anchor="middle" fill="#888" font-family="system-ui" font-size="8">John</text>

  <!-- Story 4 -->
  <circle cx="258" cy="110" r="26" fill="none" stroke="url(#sa-story)" stroke-width="2.5"/>
  <circle cx="258" cy="110" r="22" fill="#3d2040"/>
  <text x="258" y="114" text-anchor="middle" fill="#f9a8d4" font-family="system-ui" font-size="11">S</text>
  <text x="258" y="146" text-anchor="middle" fill="#888" font-family="system-ui" font-size="8">Sara</text>

  <!-- Story 5 -->
  <circle cx="328" cy="110" r="26" fill="none" stroke="#3d3d5c" stroke-width="2"/>
  <circle cx="328" cy="110" r="22" fill="#2d2d42"/>
  <text x="328" y="114" text-anchor="middle" fill="#a5b4fc" font-family="system-ui" font-size="11">K</text>
  <text x="328" y="146" text-anchor="middle" fill="#888" font-family="system-ui" font-size="8">Kevin</text>

  <!-- Story 6 -->
  <circle cx="398" cy="110" r="26" fill="none" stroke="#3d3d5c" stroke-width="2"/>
  <circle cx="398" cy="110" r="22" fill="#2d3042"/>
  <text x="398" y="114" text-anchor="middle" fill="#86efac" font-family="system-ui" font-size="11">L</text>
  <text x="398" y="146" text-anchor="middle" fill="#888" font-family="system-ui" font-size="8">Lena</text>

  <!-- Main Feed Area -->
  <!-- Left Sidebar (trending) -->
  <rect x="16" y="166" width="170" height="272" rx="8" fill="#150f22"/>
  <text x="28" y="188" fill="#e2e8f0" font-family="system-ui" font-size="11" font-weight="bold">Trending</text>
  <rect x="24" y="198" width="154" height="36" rx="6" fill="#1a1228"/>
  <text x="32" y="214" fill="#c084fc" font-family="system-ui" font-size="9" font-weight="600">#TechNews</text>
  <text x="32" y="226" fill="#6b7280" font-family="system-ui" font-size="8">12.4K posts</text>

  <rect x="24" y="240" width="154" height="36" rx="6" fill="#1a1228"/>
  <text x="32" y="256" fill="#c084fc" font-family="system-ui" font-size="9" font-weight="600">#DesignTips</text>
  <text x="32" y="268" fill="#6b7280" font-family="system-ui" font-size="8">8.2K posts</text>

  <rect x="24" y="282" width="154" height="36" rx="6" fill="#1a1228"/>
  <text x="32" y="298" fill="#c084fc" font-family="system-ui" font-size="9" font-weight="600">#WebDev</text>
  <text x="32" y="310" fill="#6b7280" font-family="system-ui" font-size="8">6.8K posts</text>

  <text x="28" y="340" fill="#e2e8f0" font-family="system-ui" font-size="11" font-weight="bold">Suggested</text>
  <rect x="24" y="350" width="154" height="40" rx="6" fill="#1a1228"/>
  <circle cx="42" cy="370" r="12" fill="#4c1d95"/>
  <text x="42" y="374" text-anchor="middle" fill="white" font-family="system-ui" font-size="8">R</text>
  <text x="60" y="366" fill="#e2e8f0" font-family="system-ui" font-size="9">Rachel K.</text>
  <text x="60" y="378" fill="#6b7280" font-family="system-ui" font-size="8">UI Designer</text>
  <rect x="134" y="360" width="40" height="20" rx="10" fill="#7c3aed"/>
  <text x="154" y="374" text-anchor="middle" fill="white" font-family="system-ui" font-size="8">Follow</text>

  <rect x="24" y="396" width="154" height="40" rx="6" fill="#1a1228"/>
  <circle cx="42" cy="416" r="12" fill="#1e3a5f"/>
  <text x="42" y="420" text-anchor="middle" fill="white" font-family="system-ui" font-size="8">D</text>
  <text x="60" y="412" fill="#e2e8f0" font-family="system-ui" font-size="9">David M.</text>
  <text x="60" y="424" fill="#6b7280" font-family="system-ui" font-size="8">Developer</text>
  <rect x="134" y="406" width="40" height="20" rx="10" fill="#7c3aed"/>
  <text x="154" y="420" text-anchor="middle" fill="white" font-family="system-ui" font-size="8">Follow</text>

  <!-- Post 1 -->
  <rect x="198" y="166" width="390" height="262" rx="8" fill="#150f22"/>
  <!-- Post header -->
  <circle cx="218" cy="188" r="16" fill="#5b21b6"/>
  <text x="218" y="192" text-anchor="middle" fill="white" font-family="system-ui" font-size="11">A</text>
  <text x="242" y="184" fill="#e2e8f0" font-family="system-ui" font-size="11" font-weight="600">Alex Chen</text>
  <text x="242" y="197" fill="#6b7280" font-family="system-ui" font-size="9">@alexc - 2h ago</text>
  <text x="560" y="190" fill="#6b7280" font-family="system-ui" font-size="14">...</text>

  <!-- Post content -->
  <text x="218" y="218" fill="#d1d5db" font-family="system-ui" font-size="11">Just shipped the new dashboard redesign!</text>
  <text x="218" y="234" fill="#d1d5db" font-family="system-ui" font-size="11">Really proud of how the team came together</text>
  <text x="218" y="250" fill="#c084fc" font-family="system-ui" font-size="11">#design #webdev #launch</text>

  <!-- Post image placeholder -->
  <rect x="218" y="260" width="350" height="120" rx="8" fill="#1a1228"/>
  <rect x="240" y="286" width="120" height="70" rx="6" fill="#2d1f42"/>
  <rect x="370" y="286" width="80" height="70" rx="6" fill="#1e1a3a"/>
  <rect x="460" y="286" width="86" height="70" rx="6" fill="#261842"/>

  <!-- Post actions -->
  <text x="218" y="400" fill="#c084fc" font-family="system-ui" font-size="10">248 likes</text>
  <text x="300" y="400" fill="#6b7280" font-family="system-ui" font-size="10">42 comments</text>
  <text x="400" y="400" fill="#6b7280" font-family="system-ui" font-size="10">12 shares</text>
  <!-- Action buttons row -->
  <rect x="218" y="408" width="350" height="0.5" fill="#2d2d44"/>
  <text x="265" y="424" text-anchor="middle" fill="#6b7280" font-family="system-ui" font-size="10">Like</text>
  <text x="370" y="424" text-anchor="middle" fill="#6b7280" font-family="system-ui" font-size="10">Comment</text>
  <text x="480" y="424" text-anchor="middle" fill="#6b7280" font-family="system-ui" font-size="10">Share</text>

  <!-- Right Sidebar -->
  <rect x="600" y="166" width="186" height="130" rx="8" fill="#150f22"/>
  <text x="612" y="188" fill="#e2e8f0" font-family="system-ui" font-size="11" font-weight="bold">Messages</text>
  <circle cx="770" cy="184" r="4" fill="#22c55e"/>

  <rect x="608" y="198" width="170" height="32" rx="6" fill="#1a1228"/>
  <circle cx="622" cy="214" r="10" fill="#4c1d95"/>
  <text x="622" y="218" text-anchor="middle" fill="white" font-family="system-ui" font-size="7">M</text>
  <text x="638" y="210" fill="#e2e8f0" font-family="system-ui" font-size="9">Maria</text>
  <text x="638" y="222" fill="#6b7280" font-family="system-ui" font-size="8">Hey! How's the project...</text>
  <circle cx="770" cy="214" r="3" fill="#7c3aed"/>

  <rect x="608" y="236" width="170" height="32" rx="6" fill="#1a1228"/>
  <circle cx="622" cy="252" r="10" fill="#1e3a5f"/>
  <text x="622" y="256" text-anchor="middle" fill="white" font-family="system-ui" font-size="7">J</text>
  <text x="638" y="248" fill="#e2e8f0" font-family="system-ui" font-size="9">John</text>
  <text x="638" y="260" fill="#6b7280" font-family="system-ui" font-size="8">Meeting at 3pm today</text>

  <rect x="608" y="274" width="170" height="16" rx="4" fill="transparent"/>
  <text x="693" y="286" text-anchor="middle" fill="#7c3aed" font-family="system-ui" font-size="9">See all messages</text>
</svg>