<svg xmlns="http://www.w3.org/2000/svg" width="800" height="450" viewBox="0 0 800 450">
  <defs>
    <linearGradient id="tm-accent" x1="0" y1="0" x2="1" y2="0">
      <stop offset="0%" stop-color="#059669"/>
      <stop offset="100%" stop-color="#34d399"/>
    </linearGradient>
  </defs>

  <!-- Browser Chrome -->
  <rect width="800" height="450" rx="8" fill="#0f1a14"/>
  <rect width="800" height="32" rx="8" fill="#1a2e22"/>
  <rect x="0" y="24" width="800" height="8" fill="#1a2e22"/>
  <circle cx="16" cy="16" r="5" fill="#ff5f57"/>
  <circle cx="34" cy="16" r="5" fill="#ffbd2e"/>
  <circle cx="52" cy="16" r="5" fill="#28c840"/>
  <rect x="200" y="8" width="400" height="18" rx="9" fill="#0f1a14" opacity="0.6"/>
  <text x="400" y="21" text-anchor="middle" fill="#888" font-family="system-ui" font-size="9">taskflow.app/board/sprint-14</text>

  <!-- Top Nav -->
  <rect x="0" y="32" width="800" height="44" fill="#132219"/>
  <text x="20" y="59" fill="#34d399" font-family="system-ui" font-weight="bold" font-size="15">TaskFlow</text>
  <text x="120" y="59" fill="#6b8f7b" font-family="system-ui" font-size="11">Boards</text>
  <text x="175" y="59" fill="#6b8f7b" font-family="system-ui" font-size="11">Timeline</text>
  <text x="240" y="59" fill="#6b8f7b" font-family="system-ui" font-size="11">Calendar</text>

  <!-- Team Avatars -->
  <circle cx="640" cy="54" r="12" fill="#059669"/>
  <text x="640" y="58" text-anchor="middle" fill="white" font-family="system-ui" font-size="9">A</text>
  <circle cx="662" cy="54" r="12" fill="#0d9488"/>
  <text x="662" y="58" text-anchor="middle" fill="white" font-family="system-ui" font-size="9">B</text>
  <circle cx="684" cy="54" r="12" fill="#10b981"/>
  <text x="684" y="58" text-anchor="middle" fill="white" font-family="system-ui" font-size="9">C</text>
  <rect x="710" y="43" width="70" height="24" rx="12" fill="url(#tm-accent)"/>
  <text x="745" y="59" text-anchor="middle" fill="white" font-family="system-ui" font-size="10">+ Invite</text>

  <!-- Board Header -->
  <rect x="0" y="76" width="800" height="36" fill="#0f1a14"/>
  <text x="20" y="99" fill="#d1fae5" font-family="system-ui" font-size="14" font-weight="bold">Sprint 14 Board</text>
  <rect x="200" y="86" width="70" height="20" rx="10" fill="#1a2e22"/>
  <text x="235" y="100" text-anchor="middle" fill="#6b8f7b" font-family="system-ui" font-size="9">Filter</text>
  <rect x="278" y="86" width="70" height="20" rx="10" fill="#1a2e22"/>
  <text x="313" y="100" text-anchor="middle" fill="#6b8f7b" font-family="system-ui" font-size="9">Sort</text>

  <!-- Column 1: To Do -->
  <rect x="16" y="120" width="248" height="322" rx="8" fill="#132219"/>
  <text x="28" y="142" fill="#d1fae5" font-family="system-ui" font-size="12" font-weight="bold">To Do</text>
  <circle cx="80" cy="138" r="9" fill="#1a2e22"/>
  <text x="80" y="141" text-anchor="middle" fill="#6b8f7b" font-family="system-ui" font-size="8">5</text>

  <!-- Task Card 1 -->
  <rect x="24" y="154" width="232" height="78" rx="6" fill="#1a2e22"/>
  <rect x="32" y="162" width="50" height="16" rx="8" fill="#059669" opacity="0.2"/>
  <text x="57" y="174" text-anchor="middle" fill="#34d399" font-family="system-ui" font-size="8">Feature</text>
  <text x="32" y="196" fill="#d1fae5" font-family="system-ui" font-size="11" font-weight="600">User authentication flow</text>
  <text x="32" y="212" fill="#6b8f7b" font-family="system-ui" font-size="9">Implement OAuth2 login</text>
  <circle cx="230" cy="220" r="8" fill="#059669"/>
  <text x="230" y="223" text-anchor="middle" fill="white" font-family="system-ui" font-size="7">A</text>

  <!-- Task Card 2 -->
  <rect x="24" y="240" width="232" height="68" rx="6" fill="#1a2e22"/>
  <rect x="32" y="248" width="35" height="16" rx="8" fill="#f59e0b" opacity="0.2"/>
  <text x="49" y="260" text-anchor="middle" fill="#fbbf24" font-family="system-ui" font-size="8">Bug</text>
  <text x="32" y="280" fill="#d1fae5" font-family="system-ui" font-size="11" font-weight="600">Fix sidebar collapse</text>
  <text x="32" y="296" fill="#6b8f7b" font-family="system-ui" font-size="9">Mobile responsive issue</text>

  <!-- Task Card 3 -->
  <rect x="24" y="316" width="232" height="56" rx="6" fill="#1a2e22"/>
  <rect x="32" y="324" width="65" height="16" rx="8" fill="#3b82f6" opacity="0.2"/>
  <text x="64" y="336" text-anchor="middle" fill="#60a5fa" font-family="system-ui" font-size="8">Enhancement</text>
  <text x="32" y="356" fill="#d1fae5" font-family="system-ui" font-size="11" font-weight="600">Dark mode toggle</text>

  <!-- Column 2: In Progress -->
  <rect x="276" y="120" width="248" height="322" rx="8" fill="#132219"/>
  <text x="288" y="142" fill="#d1fae5" font-family="system-ui" font-size="12" font-weight="bold">In Progress</text>
  <circle cx="372" cy="138" r="9" fill="#f59e0b" opacity="0.3"/>
  <text x="372" y="141" text-anchor="middle" fill="#fbbf24" font-family="system-ui" font-size="8">3</text>

  <!-- Task Card 4 -->
  <rect x="284" y="154" width="232" height="88" rx="6" fill="#1a2e22"/>
  <rect x="292" y="162" width="50" height="16" rx="8" fill="#059669" opacity="0.2"/>
  <text x="317" y="174" text-anchor="middle" fill="#34d399" font-family="system-ui" font-size="8">Feature</text>
  <text x="292" y="196" fill="#d1fae5" font-family="system-ui" font-size="11" font-weight="600">Payment integration</text>
  <text x="292" y="212" fill="#6b8f7b" font-family="system-ui" font-size="9">Stripe API setup</text>
  <!-- Progress bar -->
  <rect x="292" y="224" width="180" height="4" rx="2" fill="#1a3828"/>
  <rect x="292" y="224" width="120" height="4" rx="2" fill="#059669"/>
  <text x="480" y="228" fill="#34d399" font-family="system-ui" font-size="8">65%</text>
  <circle cx="490" cy="230" r="8" fill="#0d9488"/>
  <text x="490" y="233" text-anchor="middle" fill="white" font-family="system-ui" font-size="7">B</text>

  <!-- Task Card 5 -->
  <rect x="284" y="250" width="232" height="78" rx="6" fill="#1a2e22"/>
  <rect x="292" y="258" width="50" height="16" rx="8" fill="#8b5cf6" opacity="0.2"/>
  <text x="317" y="270" text-anchor="middle" fill="#a78bfa" font-family="system-ui" font-size="8">Design</text>
  <text x="292" y="292" fill="#d1fae5" font-family="system-ui" font-size="11" font-weight="600">Dashboard redesign</text>
  <text x="292" y="308" fill="#6b8f7b" font-family="system-ui" font-size="9">New chart components</text>
  <rect x="292" y="314" width="180" height="4" rx="2" fill="#1a3828"/>
  <rect x="292" y="314" width="80" height="4" rx="2" fill="#059669"/>
  <circle cx="490" cy="316" r="8" fill="#10b981"/>
  <text x="490" y="319" text-anchor="middle" fill="white" font-family="system-ui" font-size="7">C</text>

  <!-- Task Card 6 -->
  <rect x="284" y="336" width="232" height="56" rx="6" fill="#1a2e22"/>
  <rect x="292" y="344" width="35" height="16" rx="8" fill="#f59e0b" opacity="0.2"/>
  <text x="309" y="356" text-anchor="middle" fill="#fbbf24" font-family="system-ui" font-size="8">Bug</text>
  <text x="292" y="376" fill="#d1fae5" font-family="system-ui" font-size="11" font-weight="600">API rate limiting fix</text>

  <!-- Column 3: Done -->
  <rect x="536" y="120" width="248" height="322" rx="8" fill="#132219"/>
  <text x="548" y="142" fill="#d1fae5" font-family="system-ui" font-size="12" font-weight="bold">Done</text>
  <circle cx="590" cy="138" r="9" fill="#059669" opacity="0.3"/>
  <text x="590" y="141" text-anchor="middle" fill="#34d399" font-family="system-ui" font-size="8">4</text>

  <!-- Task Card 7 (completed) -->
  <rect x="544" y="154" width="232" height="62" rx="6" fill="#1a2e22" opacity="0.7"/>
  <rect x="552" y="162" width="50" height="16" rx="8" fill="#059669" opacity="0.15"/>
  <text x="577" y="174" text-anchor="middle" fill="#34d399" font-family="system-ui" font-size="8">Feature</text>
  <text x="552" y="196" fill="#6b8f7b" font-family="system-ui" font-size="11" font-weight="600" text-decoration="line-through">Email notifications</text>
  <circle cx="750" cy="190" r="8" fill="#059669" opacity="0.5"/>
  <text x="750" y="193" text-anchor="middle" fill="white" font-family="system-ui" font-size="7">A</text>

  <!-- Task Card 8 (completed) -->
  <rect x="544" y="224" width="232" height="62" rx="6" fill="#1a2e22" opacity="0.7"/>
  <rect x="552" y="232" width="65" height="16" rx="8" fill="#3b82f6" opacity="0.15"/>
  <text x="584" y="244" text-anchor="middle" fill="#60a5fa" font-family="system-ui" font-size="8">Enhancement</text>
  <text x="552" y="266" fill="#6b8f7b" font-family="system-ui" font-size="11" font-weight="600" text-decoration="line-through">Search optimization</text>

  <!-- Task Card 9 (completed) -->
  <rect x="544" y="294" width="232" height="62" rx="6" fill="#1a2e22" opacity="0.7"/>
  <rect x="552" y="302" width="50" height="16" rx="8" fill="#8b5cf6" opacity="0.15"/>
  <text x="577" y="314" text-anchor="middle" fill="#a78bfa" font-family="system-ui" font-size="8">Design</text>
  <text x="552" y="336" fill="#6b8f7b" font-family="system-ui" font-size="11" font-weight="600" text-decoration="line-through">Logo update</text>

  <!-- Task Card 10 (completed) -->
  <rect x="544" y="364" width="232" height="62" rx="6" fill="#1a2e22" opacity="0.7"/>
  <rect x="552" y="372" width="35" height="16" rx="8" fill="#f59e0b" opacity="0.15"/>
  <text x="569" y="384" text-anchor="middle" fill="#fbbf24" font-family="system-ui" font-size="8">Bug</text>
  <text x="552" y="406" fill="#6b8f7b" font-family="system-ui" font-size="11" font-weight="600" text-decoration="line-through">Memory leak fix</text>
</svg>